Coordinates
version=1
nRows=9
nColumns=36
inDegrees=yes

Units are S.I. units (second, meters, Newtons, ...)
If the header above contains a line with 'inDegrees', this indicates whether rotational values are in degrees (yes) or radians (no).

endheader
time	pelvis_tilt	pelvis_list	pelvis_rotation	pelvis_tx	pelvis_ty	pelvis_tz	hip_flexion_r	hip_adduction_r	hip_rotation_r	knee_angle_r	knee_angle_r_beta	ankle_angle_r	subtalar_angle_r	mtp_angle_r	hip_flexion_l	hip_adduction_l	hip_rotation_l	knee_angle_l	knee_angle_l_beta	ankle_angle_l	subtalar_angle_l	mtp_angle_l	lumbar_extension	lumbar_bending	lumbar_rotation	arm_flex_r	arm_add_r	arm_rot_r	elbow_flex_r	pro_sup_r	arm_flex_l	arm_add_l	arm_rot_l	elbow_flex_l	pro_sup_l
      3.50000000	     -2.47382095	     -2.09277362	      9.89106032	      0.88682052	      0.91627184	     -0.11791783	      7.26903109	      4.57273554	      4.80202604	     15.58141269	      0.27194695	     16.40722993	    -10.99061690	     -7.49999987	     10.68327858	      1.51598648	      9.18617069	     24.51963035	      0.42794828	      8.19450594	    -20.58530149	     -7.49999987	     -2.57690556	      0.97218464	      5.60017926	      0.95693967	     -4.48595444	     -5.73592996	     29.66917898	     91.10820958	      4.58937960	     -3.47981889	      2.02368111	     21.20281366	     83.03937355
      3.51666670	     -2.29903077	     -2.28187773	      9.47651635	      0.88159792	      0.91555714	     -0.12129197	      7.27280602	      4.72317310	      5.06337342	     15.27419704	      0.26658503	     15.95763016	    -11.10093544	     -7.49999987	     10.71135442	      1.41358236	      9.31627034	     24.44847658	      0.42670641	      7.92399820	    -21.00155468	     -7.49999987	     -2.89619067	      1.16765964	      5.27611936	      2.06080253	     -4.32511648	     -4.28340597	     29.23428637	     91.88696502	      5.47271961	     -3.40492381	      2.47945107	     21.19832186	     83.03635817
      3.53333330	     -2.24583147	     -2.39501317	      9.02059761	      0.87689872	      0.92401347	     -0.11829970	      7.23252719	      4.77648227	      5.29533535	     14.53806696	      0.25373714	     15.61336758	    -10.64961143	     -7.49999987	     10.74563278	      1.33765642	      9.48236224	     24.08251587	      0.42031919	      7.32122056	    -21.45708501	     -7.49999987	     -3.05012150	      1.21122329	      4.92880224	      3.15432239	     -3.98267144	     -2.32639871	     28.80078446	     91.80081039	      6.19665279	     -3.42993721	      3.27130539	     21.32345859	     82.01295181
      3.55000000	     -2.45212465	     -2.55861301	      8.71002572	      0.87611227	      0.92077350	     -0.11840906	      7.07327452	      4.80493210	      5.28720202	     13.23207906	      0.23094335	     15.13684359	     -9.91565161	     -7.49999987	     10.90288518	      1.20232416	      9.45873162	     23.48647977	      0.40991640	      7.31889045	    -21.21967526	     -7.49999987	     -2.80816199	      1.28000958	      4.76542564	      3.49902812	     -3.29677752	     -2.05430802	     29.00954669	     91.41734924	      6.73459342	     -3.41955212	      3.32149007	     21.63453422	     81.67458518
      3.56666670	     -2.63211894	     -2.60764323	      8.38710261	      0.87165057	      0.91707632	     -0.11572639	      7.10884382	      4.77465298	      5.22162636	     12.28427055	      0.21440097	     15.05679055	     -9.02740147	     -7.49999987	     10.92920650	      1.12830556	      9.40927309	     22.74033700	      0.39689375	      7.40626149	    -21.29193480	     -7.49999987	     -2.69308699	      1.16748665	      4.41172204	      4.07802136	     -2.68402161	     -0.22614197	     28.66439067	     90.35685353	      7.69618622	     -3.53052151	      4.04215670	     21.51328221	     80.84150105
      3.58333330	     -2.91447167	     -2.68445135	      8.15454822	      0.86117833	      0.91792483	     -0.12236226	      7.58718678	      4.64949872	      5.26547407	     11.76953985	      0.20541722	     14.90926815	     -8.77963573	     -7.49999987	     11.29168102	      1.19973230	      9.34002828	     22.03522125	      0.38458716	      7.66382445	    -21.37595857	     -7.49999987	     -2.65956504	      1.30417941	      4.10902946	      4.55991984	     -2.04342688	     -0.08979396	     28.91718371	     90.38523722	      8.90251665	     -3.33029308	      4.08682444	     21.94658790	     80.85548113
      3.60000000	     -3.43366629	     -2.50794507	      7.66038078	      0.85402041	      0.91382454	     -0.12875978	      8.35937918	      4.02503285	      4.80285467	     11.23618355	      0.19610840	     14.79230149	     -7.32802356	     -7.49999987	     11.40900994	      1.67169930	      9.16912599	     20.50538320	      0.35788645	      7.88678136	    -21.13938933	     -7.49999987	     -2.44582037	      1.18806975	      3.71261098	      4.84199398	     -1.75703619	      0.69592119	     29.89057774	     90.53270407	      9.59014256	     -3.36406912	      4.63032963	     23.10869166	     80.94239452
      3.61666670	     -3.76904017	     -2.37904949	      7.40098679	      0.85750016	      0.91217126	     -0.12437610	      8.97150505	      3.63977802	      4.69297729	     11.02132581	      0.19235842	     14.62365486	     -6.69148091	     -7.49999987	     11.26332380	      1.94554482	      9.10309123	     19.10820647	      0.33350112	      7.94703486	    -20.99925700	     -7.49999987	     -2.27624144	      1.07508012	      3.36015839	      5.14708462	     -1.32106335	      1.18780401	     30.36247441	     90.62910629	     10.48988406	     -3.34998842	      4.95984098	     23.77463125	     81.02890452
      3.63333330	     -4.20658203	     -2.29024253	      6.92430577	      0.84865605	      0.90571618	     -0.12354513	     10.11834283	      3.30601691	      4.32321065	     11.49153105	      0.20056505	     15.10090278	     -5.58478898	     -7.49999987	     11.41416711	      2.13494348	      8.76113219	     17.96746232	      0.31359138	      8.42526723	    -20.84399783	     -7.49999987	     -2.10779146	      1.10891864	      3.17664062	      5.64738039	     -1.46568318	      3.79608496	     31.18637147	     89.35326592	     11.39836333	     -3.61924631	      6.71659518	     25.27454486	     80.31507593
